<mxfile host="app.diagrams.net" modified="2021-10-12T01:25:25.211Z" agent="5.0 (Macintosh; Intel Mac OS X 10_15_7) AppleWebKit/537.36 (KHTML, like Gecko) Chrome/94.0.4606.81 Safari/537.36" etag="4br7Nd8kTiDgtby_5lfo" version="15.5.1" type="github">
  <diagram id="6a731a19-8d31-9384-78a2-239565b7b9f0" name="Page-1">
    <mxGraphModel dx="208" dy="769" grid="1" gridSize="10" guides="1" tooltips="1" connect="1" arrows="1" fold="1" page="1" pageScale="1" pageWidth="1169" pageHeight="827" background="none" math="0" shadow="0">
      <root>
        <mxCell id="0" />
        <mxCell id="1" parent="0" />
        <mxCell id="reC_g7u36sQyInGOi-Wk-984" value="&lt;div&gt;&lt;b&gt;Guarded Heart &lt;/b&gt;Proverbs 4:23&lt;br&gt;Above all else, guard your heart,&lt;span&gt;&amp;nbsp;for everything you do flows from it&lt;/span&gt;&lt;/div&gt;" style="rounded=0;whiteSpace=wrap;html=1;dashed=1;dashPattern=1 4;align=left;spacingLeft=5;" vertex="1" parent="1">
          <mxGeometry x="1644" y="570" width="220" height="100" as="geometry" />
        </mxCell>
        <mxCell id="935" value="" style="rounded=0;whiteSpace=wrap;html=1;fillColor=#ffffff;strokeColor=#FFFFFF;fontColor=#000000;strokeWidth=2;" parent="1" vertex="1">
          <mxGeometry x="2192" y="540" width="1010" height="470" as="geometry" />
        </mxCell>
        <mxCell id="938" value="" style="rounded=0;whiteSpace=wrap;html=1;fillColor=#333;strokeColor=#333;strokeWidth=2;" parent="1" vertex="1">
          <mxGeometry x="1259" y="1554" width="1010" height="680" as="geometry" />
        </mxCell>
        <mxCell id="940" value="" style="shape=image;verticalLabelPosition=bottom;labelBackgroundColor=#ffffff;verticalAlign=top;aspect=fixed;imageAspect=0;image=data:image/svg+xml,PHN2ZyB4bWxucz0iaHR0cDovL3d3dy53My5vcmcvMjAwMC9zdmciIHZpZXdCb3g9IjAgMCAyMDAgMjAwIj48ZGVmcz48c3R5bGU+LmNscy0xe2ZpbGw6IzQ0NDt9LmNscy0ye2ZpbGw6IzkwOTA5MDt9LmNscy0ze2ZpbGw6I2YwODcwNTt9LmNscy00e2ZpbGw6I2NjYzt9PC9zdHlsZT48L2RlZnM+PHRpdGxlPlplaWNoZW5mbMODwqRjaGUgMyBLb3BpZSAxMDwvdGl0bGU+PGcgaWQ9IkViZW5lXzIiIGRhdGEtbmFtZT0iRWJlbmUgMiI+PHJlY3QgY2xhc3M9ImNscy0xIiB4PSI4OS40NjUiIHk9Ijk5Ljc3MyIgd2lkdGg9IjMuNiIgaGVpZ2h0PSIzOS4wMiIvPjxyZWN0IGNsYXNzPSJjbHMtMSIgeD0iOTUuNTcxIiB5PSI5Mi40MjEiIHdpZHRoPSIzLjYiIGhlaWdodD0iNDYuMzczIi8+PHJlY3QgY2xhc3M9ImNscy0xIiB4PSIxMDEuNjc2IiB5PSI4My45NyIgd2lkdGg9IjMuNiIgaGVpZ2h0PSI1NC44MjMiLz48cmVjdCBjbGFzcz0iY2xzLTEiIHg9IjgzLjM2IiB5PSI5NC4zMTkiIHdpZHRoPSIzLjYiIGhlaWdodD0iNDQuNDc0Ii8+PHJlY3QgY2xhc3M9ImNscy0xIiB4PSIxMDcuNzgyIiB5PSI4OS45MzkiIHdpZHRoPSIzLjYiIGhlaWdodD0iNDguODU0Ii8+PHJlY3QgY2xhc3M9ImNscy0xIiB4PSIxMTMuODg3IiB5PSI5Mi40MjEiIHdpZHRoPSIzLjYiIGhlaWdodD0iNDYuMzczIi8+PHJlY3QgY2xhc3M9ImNscy0xIiB4PSIxMTkuOTkzIiB5PSI4Ny41MzgiIHdpZHRoPSIzLjYiIGhlaWdodD0iNTEuMjU1Ii8+PHJlY3QgY2xhc3M9ImNscy0xIiB4PSIxMjYuMDk4IiB5PSI3OC4wMjIiIHdpZHRoPSIzLjYiIGhlaWdodD0iNjAuNzcxIi8+PHJlY3QgY2xhc3M9ImNscy0xIiB4PSIxMzIuMjA0IiB5PSI4NS40NDQiIHdpZHRoPSIzLjYiIGhlaWdodD0iNTMuMzUiLz48cmVjdCBjbGFzcz0iY2xzLTEiIHg9IjEzOC4zMDkiIHk9Ijg3LjUzOCIgd2lkdGg9IjMuNiIgaGVpZ2h0PSI1MS4yNTUiLz48cmVjdCBjbGFzcz0iY2xzLTEiIHg9IjE0NC40MTUiIHk9IjgxLjc1NCIgd2lkdGg9IjMuNiIgaGVpZ2h0PSI1Ny4wMzkiLz48cmVjdCBjbGFzcz0iY2xzLTEiIHg9IjE1MC41MiIgeT0iNzIuNDYiIHdpZHRoPSIzLjYiIGhlaWdodD0iNjYuMzMzIi8+PHBhdGggY2xhc3M9ImNscy0yIiBkPSJNODEuNTYsMTM4Ljc5M2wxLjQtMTEuMzQ3LDEwLjQ0OCwxLjA0OWExLDEsMCwwLDAsMS4xLS45MTZMOTUuNjgsMTEyLjc3aDUuNjM0YTEsMSwwLDAsMCwuOTQ2LTEuMzIzTDk2LjcyOSw5NS4yNjNWOTEuM2gtLjA0YTI2LjAyMSwyNi4wMjEsMCwxLDAtNTAuNjEsOS42MWw1LjQzOSwxNy44NjMtMy4yNDYsMjAuMDI1WiIvPjxwYXRoIGNsYXNzPSJjbHMtMSIgZD0iTTY5Ljk2MSwxMDcuMDYyQTE2LjE2NCwxNi4xNjQsMCwxLDEsODYuMTIsOTAuOSwxNi4xODcsMTYuMTg3LDAsMCwxLDY5Ljk2MSwxMDcuMDYyWiIvPjxyZWN0IGNsYXNzPSJjbHMtMyIgeD0iNjguNDMyIiB5PSI4Mi43MjkiIHdpZHRoPSIzLjA0NyIgaGVpZ2h0PSIxNi4zMzYiLz48cmVjdCBjbGFzcz0iY2xzLTMiIHg9IjYxLjc5MyIgeT0iODkuMzc0IiB3aWR0aD0iMTYuMzMxIiBoZWlnaHQ9IjMuMDQ3Ii8+PHBvbHlnb24gY2xhc3M9ImNscy00IiBwb2ludHM9IjExMy4wMzYgODIuNDE2IDExMi41OTcgODIuNDE2IDExMi4yODMgODIuMTA1IDEwNi4yMDIgNzYuMDIxIDEwNy42OTkgNzQuNTI0IDExMy43OCA4MC42MSAxMTMuMDM0IDgxLjM1NiAxMTMuMDM2IDgyLjQxNiIvPjxwb2x5Z29uIGNsYXNzPSJjbHMtNCIgcG9pbnRzPSIxMzYuNTUxIDc3LjcxMyAxMzYuMTEzIDc3LjcxMyAxMzUuNzk4IDc3LjQwMyAxMjkuNzE3IDcxLjMxOCAxMzEuMjE1IDY5LjgyMiAxMzcuMjk1IDc1LjkwNyAxMzYuNTQ5IDc2LjY1MyAxMzYuNTUxIDc3LjcxMyIvPjxwb2x5Z29uIGNsYXNzPSJjbHMtNCIgcG9pbnRzPSIxNDAuMzE1IDc3LjcxMyAxMzkuODc2IDc3LjcxMyAxMzkuODc0IDc2LjY1MyAxMzkuMTI4IDc1LjkwNyAxNDkuOTExIDY1LjExOCAxNTEuNDA5IDY2LjYxNSAxNDAuMzE1IDc3LjcxMyIvPjxwb2x5Z29uIGNsYXNzPSJjbHMtNCIgcG9pbnRzPSIxMTYuOCA4Mi40MTYgMTE2LjM2MSA4Mi40MTYgMTE2LjM1OSA4MS4zNTYgMTE1LjYxMyA4MC42MDkgMTI2LjM5NiA2OS44MjEgMTI3Ljg5MyA3MS4zMTggMTE2LjggODIuNDE2Ii8+PHBvbHlnb24gY2xhc3M9ImNscy00IiBwb2ludHM9IjkzLjI4NiA4Ny4xMTkgOTIuODQ3IDg3LjExOSA5Mi44NDUgODYuMDU5IDkyLjA5OSA4NS4zMTMgMTAyLjg4MiA3NC41MjUgMTA0LjM3OSA3Ni4wMjEgOTMuMjg2IDg3LjExOSIvPjxwYXRoIGNsYXNzPSJjbHMtNCIgZD0iTTkxLjE4Miw5MC43MjFhMywzLDAsMSwxLDMtMywzLDMsMCwwLDEtMywzIi8+PHBhdGggY2xhc3M9ImNscy00IiBkPSJNMTA1LjI5MSw3Ni42MTJhMywzLDAsMSwxLDMtMywzLDMsMCwwLDEtMywzIi8+PHBhdGggY2xhc3M9ImNscy00IiBkPSJNMTE0LjcsODYuMDE4YTMsMywwLDEsMSwzLTMsMywzLDAsMCwxLTMsMyIvPjxwYXRoIGNsYXNzPSJjbHMtNCIgZD0iTTEyOC44MDYsNzEuOTFhMywzLDAsMSwxLDMtMywzLDMsMCwwLDEtMywzIi8+PHBhdGggY2xhc3M9ImNscy00IiBkPSJNMTM4LjIxMSw4MS4zMTVhMywzLDAsMSwxLDMtMywzLDMsMCwwLDEtMywzIi8+PHBhdGggY2xhc3M9ImNscy0zIiBkPSJNMTUyLjMyLDY3LjIwN2EzLDMsMCwxLDEsMy0zLDMsMywwLDAsMS0zLDMiLz48L2c+PC9zdmc+;" parent="1" vertex="1">
          <mxGeometry x="1578" y="1711" width="274" height="274" as="geometry" />
        </mxCell>
        <mxCell id="941" value="" style="shape=image;verticalLabelPosition=bottom;labelBackgroundColor=#ffffff;verticalAlign=top;aspect=fixed;imageAspect=0;image=data:image/svg+xml,PHN2ZyB4bWxucz0iaHR0cDovL3d3dy53My5vcmcvMjAwMC9zdmciIHZpZXdCb3g9IjAgMCAyMDAgMjAwIj48ZGVmcz48c3R5bGU+LmNscy0xe2ZpbGw6IzQ0NDt9LmNscy0ye2ZpbGw6IzkwOTA5MDt9LmNscy0ze2ZpbGw6I2NjYzt9LmNscy00e2ZpbGw6I2YwODcwNTt9PC9zdHlsZT48L2RlZnM+PHRpdGxlPlplaWNoZW5mbMODwqRjaGUgMyBLb3BpZSA5PC90aXRsZT48ZyBpZD0iRWJlbmVfMiIgZGF0YS1uYW1lPSJFYmVuZSAyIj48cGF0aCBjbGFzcz0iY2xzLTEiIGQ9Ik0xMjEuNjcxLDEyMi4zNDZINTQuOTM0YTEsMSwwLDAsMS0xLTFWNzAuOTI0YTEsMSwwLDAsMSwxLTFoNjYuNzM3YTEsMSwwLDAsMSwxLDF2NTAuNDIyQTEsMSwwLDAsMSwxMjEuNjcxLDEyMi4zNDZaIi8+PHBhdGggY2xhc3M9ImNscy0yIiBkPSJNMTEzLjk0LDEzMC4wNzZINDcuMmExLDEsMCwwLDEtMS0xVjc4LjY1NGExLDEsMCwwLDEsMS0xSDExMy45NGExLDEsMCwwLDEsMSwxdjUwLjQyMkExLDEsMCwwLDEsMTEzLjk0LDEzMC4wNzZaIi8+PHJlY3QgY2xhc3M9ImNscy0xIiB4PSI0OC44NiIgeT0iODAuMjk5IiB3aWR0aD0iNjMuNDIyIiBoZWlnaHQ9IjQ3LjEzMiIvPjxwYXRoIGNsYXNzPSJjbHMtMiIgZD0iTTY0Ljk3Nyw5OS41MjRhNi41NTYsNi41NTYsMCwxLDEsNi41ODctNi41NTUsNi41NzksNi41NzksMCwwLDEtNi41ODcsNi41NTUiLz48cGF0aCBjbGFzcz0iY2xzLTIiIGQ9Ik05OC4zMTYsOTIuMjEzLDc3LjcwNywxMTIuNzI1bC03LjAzNS03TDQ4Ljg2LDEyNy40MzFoNjMuNDIyVjEwNi4xMDlaIi8+PHJlY3QgY2xhc3M9ImNscy0zIiB4PSIxMTkuODczIiB5PSI5OS4yNjUiIHdpZHRoPSI2LjU4IiBoZWlnaHQ9IjIuOTE5Ii8+PHJlY3QgY2xhc3M9ImNscy0zIiB4PSIxMjYuMzkiIHk9Ijk3LjExNiIgd2lkdGg9IjI3LjQwNyIgaGVpZ2h0PSI3LjIxMSIvPjxwYXRoIGNsYXNzPSJjbHMtMyIgZD0iTTg1LjkwNiwxMDAuMTE0QTE3LjM2MSwxNy4zNjEsMCwxLDAsMTAzLjI2OSw4Mi43NWExNy4zNjEsMTcuMzYxLDAsMCwwLTE3LjM2MywxNy4zNjMiLz48cGF0aCBjbGFzcz0iY2xzLTEiIGQ9Ik04OS41NjUsMTAwLjExNGExMy43LDEzLjcsMCwxLDAsMTMuNy0xMy43MDYsMTMuNywxMy43LDAsMCwwLTEzLjcsMTMuNzA2Ii8+PHBhdGggY2xhc3M9ImNscy00IiBkPSJNMTAzLjI3LDEwNS4zN2ExMS4zNSwxMS4zNSwwLDAsMS05LjQ3NS01LjA4OGgwYS4zMDcuMzA3LDAsMCwxLDAtLjM0aDBhMTEuMzY1LDExLjM2NSwwLDAsMSwxOC45NDksMGgwYS4zMDcuMzA3LDAsMCwxLDAsLjM0aDBBMTEuMzUsMTEuMzUsMCwwLDEsMTAzLjI3LDEwNS4zN1oiLz48cGF0aCBjbGFzcz0iY2xzLTEiIGQ9Ik0xMDMuMjcsOTYuMDYzYTQuMDQ5LDQuMDQ5LDAsMSwwLDQuMDQ5LDQuMDQ5QTQuMDUzLDQuMDUzLDAsMCwwLDEwMy4yNyw5Ni4wNjNaIi8+PHBhdGggY2xhc3M9ImNscy00IiBkPSJNMTAzLjI3LDEwMS42N2ExLjU1OCwxLjU1OCwwLDEsMSwxLjU1OC0xLjU1OEExLjU2LDEuNTYsMCwwLDEsMTAzLjI3LDEwMS42N1oiLz48L2c+PC9zdmc+;" parent="1" vertex="1">
          <mxGeometry x="1260" y="1702" width="280" height="280" as="geometry" />
        </mxCell>
        <mxCell id="946" value="" style="shape=image;verticalLabelPosition=bottom;labelBackgroundColor=#ffffff;verticalAlign=top;aspect=fixed;imageAspect=0;image=data:image/svg+xml,PHN2ZyB4bWxucz0iaHR0cDovL3d3dy53My5vcmcvMjAwMC9zdmciIHZpZXdCb3g9IjAgMCAyMDAgMjAwIj48ZGVmcz48c3R5bGU+LmNscy0xe2ZpbGw6I2NjYzt9LmNscy0ye2ZpbGw6I2ZmZjt9LmNscy0ze2ZpbGw6I2YwODcwNTt9LmNscy00e2ZpbGw6IzkwOTA5MDt9PC9zdHlsZT48L2RlZnM+PHRpdGxlPlplaWNoZW5mbMODwqRjaGUgMyBLb3BpZSAyPC90aXRsZT48ZyBpZD0iRWJlbmVfMiIgZGF0YS1uYW1lPSJFYmVuZSAyIj48cGF0aCBjbGFzcz0iY2xzLTEiIGQ9Ik0xMDAuMzc1LDEzNy42NjZsMS40LTExLjM0NywxMS40NjQsMS4xNTEsMS4yNTctMTUuODI3aDcuMDMzbC01Ljk4NC0xNy41MDZWOTAuMTY5aC0uMDRhMjYuMDE4LDI2LjAxOCwwLDEsMC01MC42MSw5LjYxbDUuNDM5LDE3Ljg2My0zLjI0NiwyMC4wMjVaIi8+PHBhdGggY2xhc3M9ImNscy0yIiBkPSJNOTYuMzcxLDExMi4wNUg4Mi42MTN2LTEuMTgzYTEwLjE5NCwxMC4xOTQsMCwwLDAtMy4zMi03LjUxMWMtLjExOS0uMS0uMjQ5LS4yMTgtLjM3OC0uMzI2bC0uMDQxLS4wMzdhMTUuNzU0LDE1Ljc1NCwwLDEsMSwyMS4yMzksMGwtLjA0NS4wMzljLS4xMjUuMS0uMjUxLjIxMy0uMzc2LjMyN2ExMC4xNjksMTAuMTY5LDAsMCwwLTMuMzIxLDcuNTA4WiIvPjxwb2x5Z29uIGNsYXNzPSJjbHMtMyIgcG9pbnRzPSI5MC41ODcgMTAyLjQxMiA4OC4zNDggMTAxLjY0NSA5MC45NjUgOTQuMDA3IDg0LjY1NCA5NC4wMDcgODguMzQ4IDgzLjIzNiA5MC41ODcgODQuMDA0IDg3Ljk2OCA5MS42NCA5NC4yNzkgOTEuNjQgOTAuNTg3IDEwMi40MTIiLz48cmVjdCBjbGFzcz0iY2xzLTQiIHg9IjgyLjYwNCIgeT0iMTEzLjkyMyIgd2lkdGg9IjEzLjc3NyIgaGVpZ2h0PSIyLjM2NiIvPjxyZWN0IGNsYXNzPSJjbHMtNCIgeD0iODYuMzE0IiB5PSIxMTguMTYyIiB3aWR0aD0iNi4zNTgiIGhlaWdodD0iMi4zNjYiLz48cmVjdCBjbGFzcz0iY2xzLTQiIHg9Ijg4LjMxIiB5PSIxMjIuMjY5IiB3aWR0aD0iMi4zNjYiIGhlaWdodD0iMTUuMjUzIi8+PHBhdGggY2xhc3M9ImNscy0yIiBkPSJNODguMDIxLDcwLjUxNmMuNDc3LS4wMzIuOTYzLS4wNDksMS40NDItLjA0OS4zNiwwLC43MTguMDA4LDEuMDc4LjAyN2wtLjExOSwyLjM2M2MtLjMxNy0uMDE2LS42MzQtLjAyNC0uOTQ4LS4wMjQtLjQxNCwwLS44NjIuMDE1LTEuMjg4LjA0NVptNi44LDMuMWExOC4zODksMTguMzg5LDAsMCwwLTIuMTc2LS41MDlsLjQtMi4zMzNhMjAuNTg1LDIwLjU4NSwwLDAsMSwyLjQ1Ni41NzVsLS42NzksMi4yNjdNODMuMDc4LDcxLjQ3YTIwLjY0LDIwLjY0LDAsMCwxLDIuNDQ0LS42MjhsLjQ0OCwyLjMyNGExOC41MzMsMTguNTMzLDAsMCwwLTIuMTY0LjU1NlpNOTguOTExLDc1LjRhMTguNzM0LDE4LjczNCwwLDAsMC0xLjk5LTEuMDJsLjk0OS0yLjE2OGEyMS4wMTIsMjEuMDEyLDAsMCwxLDIuMjQ1LDEuMTUxbC0xLjIsMi4wMzdtLTIwLjQtMS44MTlhMjAuNzczLDIwLjc3MywwLDAsMSwyLjIyLTEuMTk0bC45OTMsMi4xNDhBMTguNDY3LDE4LjQ2NywwLDAsMCw3OS43NTksNzUuNlptMjMuOTM5LDQuNTM4YTE4LjYwNywxOC42MDcsMCwwLDAtMS42ODktMS40NjZsMS40NDItMS44NzdhMjEuMDUzLDIxLjA1MywwLDAsMSwxLjksMS42NTNsLTEuNjU3LDEuNjltLTI3Ljg2OC0xLjRhMjEuMDUxLDIxLjA1MSwwLDAsMSwxLjg3MS0xLjY4OWwxLjQ3OSwxLjg0OGExOC44MTUsMTguODE1LDAsMCwwLTEuNjYsMS41Wm0zMC42NTksNC44ODFhMTguMzksMTguMzksMCwwLDAtMS4yOTEtMS44MjZMMTA1LjgsNzguM2EyMC44LDIwLjgsMCwwLDEsMS40NTUsMi4wNTdsLTIuMDEyLDEuMjQ4bS0zMy43MjgtLjg5MWEyMC45NTgsMjAuOTU4LDAsMCwxLDEuNDE0LTIuMDg4TDc0LjgsODAuMDdhMTguNTQyLDE4LjU0MiwwLDAsMC0xLjI1NSwxLjg1MVptMzUuNjA2LDQuOTM1YTE4LjQzOCwxOC40MzgsMCwwLDAtLjgxNi0yLjA3OWwyLjE0OC0xYTIwLjkzMSwyMC45MzEsMCwwLDEsLjkyLDIuMzQ2bC0yLjI1Mi43MjltLTM3LjYzLS4zMjJhMjAuNjg2LDIwLjY4NiwwLDAsMSwuODcxLTIuMzY5bDIuMTY4Ljk1MWExOC4zOSwxOC4zOSwwLDAsMC0uNzcyLDIuMVptMzguNDgsNC43YTE4LjM2OCwxOC4zNjgsMCwwLDAtLjI5MS0yLjIxNUwxMTAsODcuMzYyYTIwLjc5LDIwLjc5LDAsMCwxLC4zMjgsMi41bC0yLjM2MS4xNjZtLTM5LjMzNC4yMTVhMjEuMDMsMjEuMDMsMCwwLDEsLjI3Ni0yLjQ2M2wyLjMzMi40QTE4LjYsMTguNiwwLDAsMCw3MSw5MC4zNTJsMCwuMDY1Wm0zOS4xLDQuMzE5YTE4LjU4OCwxOC41ODgsMCwwLDAsLjI1Mi0yLjIzbDAtLjA2NiwyLjM2My4xMTYsMCwuMDgzYTIxLjI2NSwyMS4yNjUsMCwwLDEtLjI4NCwyLjVabS0zOC43NTkuNzQ0YTIwLjg2LDIwLjg2LDAsMCwxLS4zMjQtMi41bDIuMzYxLS4xNjFBMTguNDA2LDE4LjQwNiwwLDAsMCw3MS4zLDk0Ljg2bC0yLjMyNC40NDdtMzcuNDY2LDMuNTI2YTE4LjUzMiwxOC41MzIsMCwwLDAsLjc3Ny0yLjFsMi4yNjYuNjg2YTIwLjkwNiwyMC45MDYsMCwwLDEtLjg3OCwyLjM2NlpNNzAuNTE4LDEwMC4xYTIwLjkxNywyMC45MTcsMCwwLDEtLjkxNi0yLjM0N2wyLjI1My0uNzI0YTE4LjIxNywxOC4yMTcsMCwwLDAsLjgxMiwyLjA4bC0yLjE0OS45OTJtMzMuNjQyLDIuNTcxYTE4LjY1LDE4LjY1LDAsMCwwLDEuMjU4LTEuODQ4bDIuMDMzLDEuMjExYTIwLjcyMywyMC43MjMsMCwwLDEtMS40MTksMi4wODVabS0zMSwxLjcxYTIxLjAyNCwyMS4wMjQsMCwwLDEtMS40NTEtMi4wNjJsMi4wMTUtMS4yNDNhMTguNTI5LDE4LjUyOSwwLDAsMCwxLjI4NiwxLjgyOGwtMS44NSwxLjQ3Nm0yNy44NjUsMS40N2ExOC42NTEsMTguNjUxLDAsMCwwLDEuNjYyLTEuNWwxLjY4NiwxLjY2MUEyMC45MTUsMjAuOTE1LDAsMCwxLDEwMi41LDEwNy43Wm0tMjQuMjc3LDIuMDU5YTIxLjE4OSwyMS4xODksMCwwLDEtMS45LTEuNjU3bDEuNjYtMS42ODhhMTguNDYyLDE4LjQ2MiwwLDAsMCwxLjY4NiwxLjQ3MWwtMS40NDYsMS44NzQiLz48cGF0aCBjbGFzcz0iY2xzLTEiIGQ9Ik0xMTUuNzUsMTM0LjY2NmwxLjQtMTEuMzQ3LDEwLjQ0OCwxLjA0OWExLDEsMCwwLDAsMS4xLS45MTZsMS4xNzYtMTQuODA5SDEzNS41YTEsMSwwLDAsMCwuOTQ2LTEuMzIzbC01LjUzMi0xNi4xODNWODcuMTY4aC0uMDRhMjYuMDIxLDI2LjAyMSwwLDEsMC01MC42MSw5LjYxbDUuNDM5LDE3Ljg2My0zLjI0NiwyMC4wMjVaIi8+PHBhdGggY2xhc3M9ImNscy00IiBkPSJNMTAwLjc0OSwxMzcuNjY2bDEuNC0xMS4zNDcsMTAuNDQ4LDEuMDQ5YTEsMSwwLDAsMCwxLjEtLjkxNmwxLjE3Ni0xNC44MDlIMTIwLjVhMSwxLDAsMCwwLC45NDYtMS4zMjNsLTUuNTMyLTE2LjE4M1Y5MC4xNjloLS4wNGEyNi4wMjEsMjYuMDIxLDAsMSwwLTUwLjYxLDkuNjFsNS40MzksMTcuODYzLTMuMjQ2LDIwLjAyNVoiLz48cGF0aCBjbGFzcz0iY2xzLTIiIGQ9Ik05Ni43NDQsMTEyLjA1SDgyLjk4N3YtMS4xODNhMTAuMTk0LDEwLjE5NCwwLDAsMC0zLjMyLTcuNTExYy0uMTE5LS4xLS4yNDktLjIxOC0uMzc4LS4zMjZsLS4wNDEtLjAzN2ExNS43NTQsMTUuNzU0LDAsMSwxLDIxLjIzOSwwbC0uMDQ1LjAzOWMtLjEyNS4xLS4yNTEuMjEzLS4zNzYuMzI3YTEwLjE2OSwxMC4xNjksMCwwLDAtMy4zMjEsNy41MDhaIi8+PHBvbHlnb24gY2xhc3M9ImNscy0zIiBwb2ludHM9IjkwLjk2MSAxMDIuNDEyIDg4LjcyMiAxMDEuNjQ1IDkxLjMzOSA5NC4wMDcgODUuMDI4IDk0LjAwNyA4OC43MjIgODMuMjM2IDkwLjk2MSA4NC4wMDQgODguMzQxIDkxLjY0IDk0LjY1MiA5MS42NCA5MC45NjEgMTAyLjQxMiIvPjxyZWN0IGNsYXNzPSJjbHMtMSIgeD0iODIuOTc4IiB5PSIxMTMuOTIzIiB3aWR0aD0iMTMuNzc3IiBoZWlnaHQ9IjIuMzY2Ii8+PHJlY3QgY2xhc3M9ImNscy0xIiB4PSI4Ni42ODciIHk9IjExOC4xNjIiIHdpZHRoPSI2LjM1OCIgaGVpZ2h0PSIyLjM2NiIvPjxyZWN0IGNsYXNzPSJjbHMtMSIgeD0iODguNjgzIiB5PSIxMjIuMjY5IiB3aWR0aD0iMi4zNjYiIGhlaWdodD0iMTUuMjUzIi8+PHBhdGggY2xhc3M9ImNscy0yIiBkPSJNODguNCw3MC41MTZjLjQ3Ny0uMDMyLjk2My0uMDQ5LDEuNDQyLS4wNDkuMzYsMCwuNzE4LjAwOCwxLjA3OC4wMjdMOTAuOCw3Mi44NTZjLS4zMTctLjAxNi0uNjM0LS4wMjQtLjk0OC0uMDI0LS40MTQsMC0uODYyLjAxNS0xLjI4OC4wNDVabTYuOCwzLjFhMTguMzg5LDE4LjM4OSwwLDAsMC0yLjE3Ni0uNTA5bC40LTIuMzMzYTIwLjU4NSwyMC41ODUsMCwwLDEsMi40NTYuNTc1TDk1LjIsNzMuNjEyTTgzLjQ1Miw3MS40N2EyMC42NCwyMC42NCwwLDAsMSwyLjQ0NC0uNjI4bC40NDgsMi4zMjRhMTguNTMzLDE4LjUzMywwLDAsMC0yLjE2NC41NTZaTTk5LjI4NCw3NS40YTE4LjczNCwxOC43MzQsMCwwLDAtMS45OS0xLjAybC45NDktMi4xNjhhMjEuMDEyLDIxLjAxMiwwLDAsMSwyLjI0NSwxLjE1MWwtMS4yLDIuMDM3bS0yMC40LTEuODE5YTIwLjc3MywyMC43NzMsMCwwLDEsMi4yMi0xLjE5NGwuOTkzLDIuMTQ4QTE4LjQ2NywxOC40NjcsMCwwLDAsODAuMTMzLDc1LjZabTIzLjkzOSw0LjUzOGExOC42MDcsMTguNjA3LDAsMCwwLTEuNjg5LTEuNDY2bDEuNDQyLTEuODc3YTIxLjA1MywyMS4wNTMsMCwwLDEsMS45LDEuNjUzbC0xLjY1NywxLjY5bS0yNy44NjgtMS40YTIxLjA1MSwyMS4wNTEsMCwwLDEsMS44NzEtMS42ODlsMS40NzksMS44NDhhMTguODE1LDE4LjgxNSwwLDAsMC0xLjY2LDEuNVptMzAuNjU5LDQuODgxYTE4LjM5LDE4LjM5LDAsMCwwLTEuMjkxLTEuODI2bDEuODQ3LTEuNDhhMjAuOCwyMC44LDAsMCwxLDEuNDU1LDIuMDU3bC0yLjAxMiwxLjI0OG0tMzMuNzI4LS44OTFBMjAuOTU4LDIwLjk1OCwwLDAsMSw3My4zLDc4LjYyN2wxLjg3NiwxLjQ0M2ExOC41NDIsMTguNTQyLDAsMCwwLTEuMjU1LDEuODUxWm0zNS42MDYsNC45MzVhMTguNDM4LDE4LjQzOCwwLDAsMC0uODE2LTIuMDc5bDIuMTQ4LTFhMjAuOTMxLDIwLjkzMSwwLDAsMSwuOTIsMi4zNDZsLTIuMjUyLjcyOW0tMzcuNjMtLjMyMmEyMC42ODYsMjAuNjg2LDAsMCwxLC44NzEtMi4zNjlsMi4xNjguOTUxYTE4LjM5LDE4LjM5LDAsMCwwLS43NzIsMi4xWm0zOC40OCw0LjdhMTguMzY4LDE4LjM2OCwwLDAsMC0uMjkxLTIuMjE1bDIuMzI0LS40NTFhMjAuNzksMjAuNzksMCwwLDEsLjMyOCwyLjVsLTIuMzYxLjE2Nm0tMzkuMzM0LjIxNWEyMS4wMywyMS4wMywwLDAsMSwuMjc2LTIuNDYzbDIuMzMyLjRhMTguNiwxOC42LDAsMCwwLS4yNDQsMi4xNjhsMCwuMDY1Wm0zOS4xLDQuMzE5YTE4LjU4OCwxOC41ODgsMCwwLDAsLjI1Mi0yLjIzbDAtLjA2NiwyLjM2My4xMTYsMCwuMDgzYTIxLjI2NSwyMS4yNjUsMCwwLDEtLjI4NCwyLjVabS0zOC43NTkuNzQ0YTIwLjg2LDIwLjg2LDAsMCwxLS4zMjQtMi41bDIuMzYxLS4xNjFhMTguNDA2LDE4LjQwNiwwLDAsMCwuMjg3LDIuMjE2bC0yLjMyNC40NDdtMzcuNDY2LDMuNTI2YTE4LjUzMiwxOC41MzIsMCwwLDAsLjc3Ny0yLjFsMi4yNjYuNjg2YTIwLjkwNiwyMC45MDYsMCwwLDEtLjg3OCwyLjM2NlpNNzAuODkxLDEwMC4xYTIwLjkxNywyMC45MTcsMCwwLDEtLjkxNi0yLjM0N2wyLjI1My0uNzI0YTE4LjIxNywxOC4yMTcsMCwwLDAsLjgxMiwyLjA4bC0yLjE0OS45OTJtMzMuNjQyLDIuNTcxYTE4LjY1LDE4LjY1LDAsMCwwLDEuMjU4LTEuODQ4bDIuMDMzLDEuMjExYTIwLjcyMywyMC43MjMsMCwwLDEtMS40MTksMi4wODVabS0zMSwxLjcxYTIxLjAyNCwyMS4wMjQsMCwwLDEtMS40NTEtMi4wNjJsMi4wMTUtMS4yNDNhMTguNTI5LDE4LjUyOSwwLDAsMCwxLjI4NiwxLjgyOGwtMS44NSwxLjQ3Nm0yNy44NjUsMS40N2ExOC42NTEsMTguNjUxLDAsMCwwLDEuNjYyLTEuNWwxLjY4NiwxLjY2MWEyMC45MTUsMjAuOTE1LDAsMCwxLTEuODc0LDEuNjg2Wm0tMjQuMjc3LDIuMDU5YTIxLjE4OSwyMS4xODksMCwwLDEtMS45LTEuNjU3bDEuNjYtMS42ODhhMTguNDYyLDE4LjQ2MiwwLDAsMCwxLjY4NiwxLjQ3MWwtMS40NDYsMS44NzQiLz48L2c+PC9zdmc+;" parent="1" vertex="1">
          <mxGeometry x="1635" y="310" width="100" height="100" as="geometry" />
        </mxCell>
        <mxCell id="948" value="&lt;p style=&quot;line-height: 160%&quot;&gt;&lt;font style=&quot;font-size: 15px ; line-height: 170%&quot; color=&quot;#444444&quot;&gt;The world is becoming more visual&lt;br&gt;and time poor. We are bombarded&lt;br&gt;with an ever increasing mountain&lt;br&gt;of information, and we are pressu-&lt;br&gt;red to spend less attention and&lt;br&gt;time on taking everything in. We&lt;br&gt;skim and scan our way through&lt;br&gt;documentation, missing a lot of&lt;br&gt;detail in the process.&lt;/font&gt;&lt;/p&gt;" style="text;resizable=0;points=[];autosize=1;align=left;verticalAlign=top;spacingTop=-4;fontSize=15;fontFamily=Verdana;html=1;fontColor=#444444;" parent="1" vertex="1">
          <mxGeometry x="1240" y="1100" width="280" height="260" as="geometry" />
        </mxCell>
        <mxCell id="949" value="&lt;font color=&quot;#444444&quot; style=&quot;font-size: 25px ; line-height: 130%&quot;&gt;WE DON&#39;T HAVE&lt;br&gt;TIME TO READ&lt;/font&gt;" style="text;html=1;resizable=0;points=[];autosize=1;align=left;verticalAlign=top;spacingTop=-4;fontSize=14;fontFamily=Verdana;" parent="1" vertex="1">
          <mxGeometry x="1260" y="670" width="220" height="70" as="geometry" />
        </mxCell>
        <mxCell id="950" value="&lt;p style=&quot;line-height: 170%&quot;&gt;&lt;font color=&quot;#444444&quot;&gt;Approximately 60% of us think&lt;br&gt;visually&amp;nbsp;- we see a series of pictu-&lt;br&gt;res instead of words in our minds.&lt;br&gt;The human brain perceives diffe-&lt;br&gt;rences between images more&lt;br&gt;quickly, and ensures&amp;nbsp;we&lt;br&gt;remember graphics more easily&lt;br&gt;and thoroughly than written text.&lt;br&gt;&lt;/font&gt;&lt;br&gt;&lt;/p&gt;" style="text;resizable=0;points=[];autosize=1;align=left;verticalAlign=top;spacingTop=-4;fontSize=15;fontFamily=Verdana;html=1;" parent="1" vertex="1">
          <mxGeometry x="1624" y="1103" width="270" height="260" as="geometry" />
        </mxCell>
        <mxCell id="951" value="&lt;font style=&quot;font-size: 25px&quot;&gt;Growing in Christ&lt;br&gt;&lt;br&gt;&lt;/font&gt;" style="text;html=1;resizable=0;points=[];autosize=1;align=left;verticalAlign=top;spacingTop=-4;fontSize=14;fontFamily=Verdana;fontColor=#444444;" parent="1" vertex="1">
          <mxGeometry x="1622" y="20" width="230" height="40" as="geometry" />
        </mxCell>
        <mxCell id="953" value="&lt;p style=&quot;line-height: 170%&quot;&gt;&lt;font color=&quot;#444444&quot;&gt;Our visual IQ is increasing&amp;nbsp;more&lt;br&gt;rapidly than our general IQ - we&lt;br&gt;are getting better at recognizing&lt;br&gt;patterns. It is unclear though&lt;br&gt;whether this is the driving force&lt;br&gt;behind the rising popularity of&lt;br&gt;diagrams, or as a result of being&lt;br&gt;increasingly surrounded by&lt;br&gt;diagrams. &amp;nbsp;&lt;/font&gt;&lt;/p&gt;" style="text;resizable=0;points=[];autosize=1;align=left;verticalAlign=top;spacingTop=-4;fontSize=15;fontFamily=Verdana;html=1;" parent="1" vertex="1">
          <mxGeometry x="1830" y="1600" width="260" height="260" as="geometry" />
        </mxCell>
        <mxCell id="959" value="&lt;p style=&quot;line-height: 170%&quot;&gt;&lt;br&gt;&lt;/p&gt;" style="text;resizable=0;points=[];autosize=1;align=left;verticalAlign=top;spacingTop=-4;fontSize=15;fontFamily=Verdana;html=1;" parent="1" vertex="1">
          <mxGeometry x="1454" y="1664" width="20" height="60" as="geometry" />
        </mxCell>
        <mxCell id="960" value="&lt;p style=&quot;line-height: 170%&quot;&gt;Present training or on-boarding&lt;br&gt;material visually, in additional to&lt;br&gt;traditional reports and presenta-&lt;br&gt;tions. New employees will be&lt;br&gt;ready to be a productive part of&lt;br&gt;their teams more quickly, and&lt;br&gt;training courses will be more&lt;br&gt;successful.&lt;/p&gt;" style="text;resizable=0;points=[];autosize=1;align=left;verticalAlign=top;spacingTop=-4;fontSize=15;fontFamily=Verdana;fontColor=#BBBBBB;html=1;" parent="1" vertex="1">
          <mxGeometry x="1324" y="1988" width="260" height="230" as="geometry" />
        </mxCell>
        <mxCell id="961" value="&lt;p style=&quot;line-height: 170%&quot;&gt;Use your employees&#39; improved&lt;br&gt;spatial reasoning to solve a wide&lt;br&gt;range of problems and to design&lt;br&gt;better processes, structures, and&lt;br&gt;workflows to improve your com-&lt;br&gt;pany&#39;s productivity.&lt;br&gt;&lt;/p&gt;" style="text;resizable=0;points=[];autosize=1;align=left;verticalAlign=top;spacingTop=-4;fontSize=15;fontFamily=Verdana;fontColor=#BBBBBB;html=1;" parent="1" vertex="1">
          <mxGeometry x="1635" y="1988" width="270" height="180" as="geometry" />
        </mxCell>
        <mxCell id="962" value="&lt;p style=&quot;line-height: 170%&quot;&gt;Workplaces are becoming more&lt;br&gt;distributed, and teams are beco-&lt;br&gt;ming increasingly&amp;nbsp;multi-lingual.&lt;br&gt;Diagrams get around the language&lt;br&gt;barriers that are a big drain on&lt;br&gt;productivity.&lt;br&gt;&lt;br&gt;&lt;/p&gt;" style="text;resizable=0;points=[];autosize=1;align=left;verticalAlign=top;spacingTop=-4;fontSize=15;fontFamily=Verdana;fontColor=#BBBBBB;html=1;" parent="1" vertex="1">
          <mxGeometry x="1942" y="1988" width="280" height="210" as="geometry" />
        </mxCell>
        <mxCell id="963" value="&lt;font color=&quot;#bbbbbb&quot;&gt;&lt;span style=&quot;font-size: 25px ; line-height: 30px&quot;&gt;AVOID LANGUAGE&lt;/span&gt;&lt;/font&gt;&lt;div&gt;&lt;font color=&quot;#bbbbbb&quot;&gt;&lt;span style=&quot;font-size: 25px ; line-height: 30px&quot;&gt;BARRIERS&lt;/span&gt;&lt;/font&gt;&lt;/div&gt;" style="text;html=1;resizable=0;points=[];autosize=1;align=left;verticalAlign=top;spacingTop=-4;fontSize=14;fontFamily=Verdana;fontColor=#444444;" parent="1" vertex="1">
          <mxGeometry x="1942" y="1921" width="250" height="60" as="geometry" />
        </mxCell>
        <mxCell id="964" value="&lt;font color=&quot;#bbbbbb&quot;&gt;&lt;span style=&quot;font-size: 25px ; line-height: 30px&quot;&gt;TAP INTO OUR IM-&lt;br&gt;PROVED VISUAL IQ&lt;/span&gt;&lt;/font&gt;" style="text;html=1;resizable=0;points=[];autosize=1;align=left;verticalAlign=top;spacingTop=-4;fontSize=14;fontFamily=Verdana;fontColor=#444444;" parent="1" vertex="1">
          <mxGeometry x="1634" y="1921" width="260" height="60" as="geometry" />
        </mxCell>
        <mxCell id="965" value="&lt;font color=&quot;#bbbbbb&quot;&gt;&lt;span style=&quot;font-size: 25px ; line-height: 30px&quot;&gt;SUPPORT VISUAL&amp;nbsp;&lt;br&gt;LEARNERS&lt;/span&gt;&lt;/font&gt;" style="text;html=1;resizable=0;points=[];autosize=1;align=left;verticalAlign=top;spacingTop=-4;fontSize=14;fontFamily=Verdana;fontColor=#444444;" parent="1" vertex="1">
          <mxGeometry x="1324" y="1921" width="250" height="60" as="geometry" />
        </mxCell>
        <mxCell id="966" value="&lt;font color=&quot;#bbbbbb&quot;&gt;&lt;span style=&quot;font-size: 25px ; line-height: 30px&quot;&gt;HOW CAN WE USE DIAGRAMS&lt;/span&gt;&lt;/font&gt;" style="text;html=1;resizable=0;points=[];autosize=1;align=left;verticalAlign=top;spacingTop=-4;fontSize=14;fontFamily=Verdana;fontColor=#444444;" parent="1" vertex="1">
          <mxGeometry x="1324" y="1624" width="400" height="30" as="geometry" />
        </mxCell>
        <mxCell id="967" value="&lt;font style=&quot;font-size: 45px;&quot;&gt;TO IMPROVE PRODUCTIVITY?&lt;/font&gt;" style="text;html=1;resizable=0;points=[];autosize=1;align=left;verticalAlign=top;spacingTop=-4;fontSize=45;fontFamily=Verdana;fontColor=#BBBBBB;fontStyle=1" parent="1" vertex="1">
          <mxGeometry x="1324" y="1660" width="760" height="30" as="geometry" />
        </mxCell>
        <mxCell id="969" value="&lt;p style=&quot;line-height: 170%&quot;&gt;&lt;br&gt;&lt;/p&gt;" style="text;resizable=0;points=[];autosize=1;align=left;verticalAlign=top;spacingTop=-4;fontSize=15;fontFamily=Verdana;fontColor=#BBBBBB;html=1;" parent="1" vertex="1">
          <mxGeometry x="1635" y="2344" width="20" height="60" as="geometry" />
        </mxCell>
        <mxCell id="972" value="&lt;font style=&quot;font-size: 45px&quot;&gt;DIAGRAMMING IN OUR COMPANY?&lt;/font&gt;" style="text;html=1;resizable=0;points=[];autosize=1;align=left;verticalAlign=top;spacingTop=-4;fontSize=45;fontFamily=Verdana;fontColor=#666666;fontStyle=1" parent="1" vertex="1">
          <mxGeometry x="1324" y="2651" width="810" height="60" as="geometry" />
        </mxCell>
        <mxCell id="978" value="" style="shape=image;verticalLabelPosition=bottom;labelBackgroundColor=#ffffff;verticalAlign=top;aspect=fixed;imageAspect=0;image=data:image/svg+xml,PHN2ZyB4bWxucz0iaHR0cDovL3d3dy53My5vcmcvMjAwMC9zdmciIHZpZXdCb3g9IjAgMCAyMDAgMjAwIj48ZGVmcz48c3R5bGU+LmNscy0xLC5jbHMtM3tmaWxsOiM0NDQ7fS5jbHMtMntmaWxsOiM3Nzc7fS5jbHMtM3tzdHJva2U6I2FhYTtzdHJva2UtbGluZWpvaW46cm91bmQ7c3Ryb2tlLXdpZHRoOjIuMjM0cHg7fS5jbHMtNHtmaWxsOiMzMzM7fS5jbHMtNXtmaWxsOiNmMDg3MDU7fTwvc3R5bGU+PC9kZWZzPjx0aXRsZT5aZWljaGVuZmzDg8KkY2hlIDMgS29waWUgMTE8L3RpdGxlPjxnIGlkPSJFYmVuZV8yIiBkYXRhLW5hbWU9IkViZW5lIDIiPjxwYXRoIGNsYXNzPSJjbHMtMSIgZD0iTTEzMC43MjQsOTEuNmE2LjUsNi41LDAsMCwwLTQuNjA5LTEuOTA4SDg1Ljc0M2E1LjI2OSw1LjI2OSwwLDAsMC01LjI2OCw1LjI2OVYxMTkuOWE1LjI2OCw1LjI2OCwwLDAsMCw1LjI2OCw1LjI2OGgxLjM5MXY3LjE2YS41MjYuNTI2LDAsMCwwLC45LjM3Mmw3LjUzMS03LjUzMmgzMi4zMTJhNS4yNjgsNS4yNjgsMCwwLDAsNS4yNjgtNS4yNjhsLS41MS0yMy42ODlBNi41LDYuNSwwLDAsMCwxMzAuNzI0LDkxLjZaIi8+PHBhdGggY2xhc3M9ImNscy0yIiBkPSJNOTkuODU5LDc4LjUxNmE2LjUsNi41LDAsMCwwLTQuNjA5LTEuOTA4SDU0Ljg3OGE1LjI2OSw1LjI2OSwwLDAsMC01LjI2OCw1LjI2OXYyNC45MzlhNS4yNjgsNS4yNjgsMCwwLDAsNS4yNjgsNS4yNjhoMS4zOTF2Ny4xNmEuNTI2LjUyNiwwLDAsMCwuOS4zNzJsNy41MzEtNy41MzJIOTcuMDExYTUuMjY4LDUuMjY4LDAsMCwwLDUuMjY4LTUuMjY4bC0uNTEtMjMuNjg5QTYuNSw2LjUsMCwwLDAsOTkuODU5LDc4LjUxNloiLz48cGF0aCBjbGFzcz0iY2xzLTMiIGQ9Ik05Ny42ODIsNjcuMTUxYTQuNTE4LDQuNTE4LDAsMCwwLTQuNTE5LDQuNTE5djI4LjUyNGE0LjUxOCw0LjUxOCwwLDAsMCw0LjUxOSw0LjUyaDM3LjU4Mmw3LjUxMSw3LjUxMnYtNy41MTJoMy4xYTQuNTIxLDQuNTIxLDAsMCwwLDQuNTE5LTQuNTJWNzEuNjdhNC41Miw0LjUyLDAsMCwwLTQuNTE5LTQuNTE5WiIvPjxwYXRoIGNsYXNzPSJjbHMtNCIgZD0iTTg1LjU5MiwxMDMuMzQySDgxLjg3NWEuMTc3LjE3NywwLDAsMS0uMTY1LS4xMTNMODAuMjc2LDk5LjVINzMuNzU5TDcyLjQsMTAzLjIyNWEuMTc2LjE3NiwwLDAsMS0uMTY3LjExN0g2OC42MTNhLjE3Ny4xNzcsMCwwLDEtLjE2NS0uMjQxTDc1LjAzOSw4Ni4xOGEuMTc4LjE3OCwwLDAsMSwuMTY1LS4xMTNoMy42MTNhLjE3Ny4xNzcsMCwwLDEsLjE2NC4xMTFMODUuNzU2LDEwMy4xYS4xNzcuMTc3LDAsMCwxLS4xNjUuMjQzTTc0LjkzNyw5Ni4yOTRoNC4xMDlsLTIuMDc1LTUuNTg4WiIvPjxwYXRoIGNsYXNzPSJjbHMtNSIgZD0iTTExMi44MjksOTUuOTI2YS4zNTQuMzU0LDAsMCwxLS4zMTgtLjJsLTEuMTg3LTIuNDM3YS4zNTkuMzU5LDAsMCwxLS4wMDYtLjMuMzU1LjM1NSwwLDAsMSwuMjI2LS4yLDI3LjQzNiwyNy40MzYsMCwwLDAsNy40MTMtMy4yLDE5LjM0OCwxOS4zNDgsMCwwLDEtMi44MzgtMy42MzksMTcuMDExLDE3LjAxMSwwLDAsMS0xLjY1LTMuNDU4aC0yLjM1NGEuMzU1LjM1NSwwLDAsMS0uMzU1LS4zNTV2LTIuNWEuMzU0LjM1NCwwLDAsMSwuMzU1LS4zNTVoNy43NThWNzYuNTYzYS4zNTQuMzU0LDAsMCwxLC4zNTUtLjM1NWgzLjAxNmEuMzU0LjM1NCwwLDAsMSwuMzU1LjM1NXYyLjcyNGg3Ljg4M2EuMzU0LjM1NCwwLDAsMSwuMzU1LjM1NXYyLjVhLjM1NS4zNTUsMCwwLDEtLjM1NS4zNTVoLTIuNzYzYTE4LjEzLDE4LjEzLDAsMCwxLTQuMjA3LDYuOTIyQTI2LjIwOCwyNi4yMDgsMCwwLDAsMTMyLDkyLjQzMmEuMzU1LjM1NSwwLDAsMSwuMjE4LjUyN2wtMS42MjgsMi43MTFhLjM1OS4zNTksMCwwLDEtLjQuMTU4QTI4LjQ4MiwyOC40ODIsMCwwLDEsMTIxLjcsOTEuOWEzMC41MywzMC41MywwLDAsMS04Ljc2Nyw0LjAxMi4zNDUuMzQ1LDAsMCwxLS4xLjAxNm01LjUtMTMuNDI5YTE0Ljk2OSwxNC45NjksMCwwLDAsMy4zODYsNC43NywxNC43NzYsMTQuNzc2LDAsMCwwLDMuMTE1LTQuNzdaIi8+PC9nPjwvc3ZnPg==;" parent="1" vertex="1">
          <mxGeometry x="1880" y="1708" width="277" height="277" as="geometry" />
        </mxCell>
        <mxCell id="Git5-IpuEjKgYyjOKP_q-979" value="Actor" style="shape=umlActor;verticalLabelPosition=bottom;verticalAlign=top;html=1;outlineConnect=0;" parent="1" vertex="1">
          <mxGeometry x="1300" y="302" width="30" height="60" as="geometry" />
        </mxCell>
        <mxCell id="Git5-IpuEjKgYyjOKP_q-986" value="" style="edgeStyle=orthogonalEdgeStyle;rounded=0;orthogonalLoop=1;jettySize=auto;html=1;entryX=0;entryY=0.5;entryDx=0;entryDy=0;" parent="1" source="Git5-IpuEjKgYyjOKP_q-982" target="Git5-IpuEjKgYyjOKP_q-983" edge="1">
          <mxGeometry relative="1" as="geometry" />
        </mxCell>
        <mxCell id="Git5-IpuEjKgYyjOKP_q-982" value="New Believer" style="rounded=0;whiteSpace=wrap;html=1;" parent="1" vertex="1">
          <mxGeometry x="1380" y="310" width="120" height="60" as="geometry" />
        </mxCell>
        <mxCell id="Git5-IpuEjKgYyjOKP_q-987" value="" style="edgeStyle=orthogonalEdgeStyle;rounded=0;orthogonalLoop=1;jettySize=auto;html=1;" parent="1" source="Git5-IpuEjKgYyjOKP_q-983" target="Git5-IpuEjKgYyjOKP_q-984" edge="1">
          <mxGeometry relative="1" as="geometry" />
        </mxCell>
        <mxCell id="Git5-IpuEjKgYyjOKP_q-983" value="Overcoming Believer" style="rounded=0;whiteSpace=wrap;html=1;" parent="1" vertex="1">
          <mxGeometry x="1669" y="242" width="120" height="60" as="geometry" />
        </mxCell>
        <mxCell id="Git5-IpuEjKgYyjOKP_q-984" value="Mature Believer&amp;nbsp;" style="rounded=0;whiteSpace=wrap;html=1;" parent="1" vertex="1">
          <mxGeometry x="1934" y="170" width="120" height="60" as="geometry" />
        </mxCell>
        <mxCell id="Git5-IpuEjKgYyjOKP_q-985" value="" style="shape=image;html=1;verticalAlign=top;verticalLabelPosition=bottom;labelBackgroundColor=#ffffff;imageAspect=0;aspect=fixed;image=https://cdn2.iconfinder.com/data/icons/miscellaneous-31/60/target-128.png" parent="1" vertex="1">
          <mxGeometry x="2084" y="122" width="98" height="98" as="geometry" />
        </mxCell>
        <mxCell id="Git5-IpuEjKgYyjOKP_q-988" value="2 John 14... I have written to you, young men, because you are strong, and the word of God remains in you, and you have overcome the evil one" style="rounded=0;whiteSpace=wrap;html=1;dashed=1;dashPattern=1 4;" parent="1" vertex="1">
          <mxGeometry x="1657" y="120" width="160" height="100" as="geometry" />
        </mxCell>
        <mxCell id="reC_g7u36sQyInGOi-Wk-978" value="&lt;div&gt;&amp;nbsp;&lt;/div&gt;&lt;div&gt;Philippians 2:12 ...&lt;b&gt;work out your own salvation&lt;/b&gt; with fear and trembling; 13 for it is God who is at work in you, both to desire and to work for His good pleasure.&lt;/div&gt;" style="text;html=1;strokeColor=none;fillColor=none;align=center;verticalAlign=middle;whiteSpace=wrap;rounded=0;" vertex="1" parent="1">
          <mxGeometry x="1346" y="60" width="876" height="30" as="geometry" />
        </mxCell>
        <mxCell id="reC_g7u36sQyInGOi-Wk-979" value="Philippians 3:14 I press on toward the goal for the prize of the upward call of God in Christ Jesus" style="text;whiteSpace=wrap;html=1;" vertex="1" parent="1">
          <mxGeometry x="2054" y="232" width="236" height="80" as="geometry" />
        </mxCell>
        <mxCell id="reC_g7u36sQyInGOi-Wk-980" value="2 John 14... I have written to you, young men, because you are strong, and the word of God remains in you, and you have overcome the evil one" style="rounded=0;whiteSpace=wrap;html=1;dashed=1;dashPattern=1 4;" vertex="1" parent="1">
          <mxGeometry x="1374" y="180" width="160" height="100" as="geometry" />
        </mxCell>
        <mxCell id="reC_g7u36sQyInGOi-Wk-981" value="&lt;b&gt;Guarded Mind&amp;nbsp;&lt;/b&gt;&lt;br&gt;Finally, brothers and sisters, whatever is true, whatever is honorable, whatever is right, whatever is pure, whatever is lovely, whatever is commendable, if there is any excellence and if anything worthy of praise, think about these things." style="rounded=0;whiteSpace=wrap;html=1;dashed=1;dashPattern=1 4;" vertex="1" parent="1">
          <mxGeometry x="1644" y="414" width="220" height="120" as="geometry" />
        </mxCell>
        <mxCell id="reC_g7u36sQyInGOi-Wk-983" value="" style="verticalLabelPosition=bottom;html=1;verticalAlign=top;align=center;strokeColor=none;fillColor=#00BEF2;shape=mxgraph.azure.healthy;dashed=1;dashPattern=1 4;" vertex="1" parent="1">
          <mxGeometry x="1809" y="573" width="51" height="40" as="geometry" />
        </mxCell>
        <mxCell id="reC_g7u36sQyInGOi-Wk-985" value="&lt;b&gt;Guarded Path Psalm 17:5&lt;/b&gt;&lt;br&gt;&lt;div&gt;&lt;br&gt;&lt;/div&gt;&lt;span&gt;My steps have held to your paths; my feet have not stumbled.&lt;/span&gt;&amp;nbsp;" style="rounded=0;whiteSpace=wrap;html=1;dashed=1;dashPattern=1 4;align=left;spacingLeft=5;" vertex="1" parent="1">
          <mxGeometry x="1644" y="690" width="220" height="100" as="geometry" />
        </mxCell>
        <mxCell id="reC_g7u36sQyInGOi-Wk-986" value="&lt;b&gt;Guarded Eyes Psalm 101:3&lt;/b&gt;&lt;br&gt;&lt;div&gt;&lt;br&gt;&amp;nbsp;will set no wicked thing before mine eyes&lt;br&gt;&lt;/div&gt;&lt;div&gt;&lt;br&gt;&lt;/div&gt;" style="rounded=0;whiteSpace=wrap;html=1;dashed=1;dashPattern=1 4;align=left;spacingLeft=5;" vertex="1" parent="1">
          <mxGeometry x="1894" y="414" width="220" height="100" as="geometry" />
        </mxCell>
        <mxCell id="reC_g7u36sQyInGOi-Wk-987" value="&lt;b&gt;Guarded Touge Psalm 34:13&lt;/b&gt;&lt;br&gt;&lt;div&gt;&lt;br&gt;&amp;nbsp;will set no wicked thing before mine eyes&lt;br&gt;&lt;/div&gt;&lt;div&gt;&lt;br&gt;&lt;/div&gt;" style="rounded=0;whiteSpace=wrap;html=1;dashed=1;dashPattern=1 4;align=left;spacingLeft=5;" vertex="1" parent="1">
          <mxGeometry x="1894" y="570" width="220" height="100" as="geometry" />
        </mxCell>
        <mxCell id="reC_g7u36sQyInGOi-Wk-990" value="Work Out Part" style="text;html=1;strokeColor=none;fillColor=none;align=center;verticalAlign=middle;whiteSpace=wrap;rounded=0;dashed=1;dashPattern=1 4;" vertex="1" parent="1">
          <mxGeometry x="1729" y="332" width="111" height="30" as="geometry" />
        </mxCell>
      </root>
    </mxGraphModel>
  </diagram>
</mxfile>
